<svg width="48" height="48" viewBox="0 0 48 48" fill="none" xmlns="http://www.w3.org/2000/svg">
<path fill-rule="evenodd" clip-rule="evenodd" d="M0 24C0 10.7452 10.7452 0 24 0C37.2548 0 48 10.7452 48 24C48 37.2548 37.2548 48 24 48C10.7452 48 0 37.2548 0 24ZM12 24C12 17.4 17.4 12 24 12C30.6 12 36 17.4 35.85 23.4C35.85 30 30.45 35.4 23.85 35.4C22.65 35.4 21.45 35.25 20.4 34.95C20.85 34.2 21.3 33.3 21.6 32.4C21.75 31.8 22.5 29.1 22.5 29.1C22.95 29.85 24.15 30.6 25.5 30.6C29.4 30.6 31.95 27 31.95 22.35C31.95 18.75 28.95 15.45 24.3 15.45C18.6 15.45 15.75 19.5 15.75 22.95C15.75 25.05 16.5 26.85 18.15 27.6C18.45 27.75 18.6 27.6 18.75 27.3C18.9 27.15 19.05 26.55 19.05 26.4C19.1561 26.1879 19.1121 26.1257 19.0243 26.0015C18.9879 25.95 18.9439 25.8879 18.9 25.8C18.45 25.2 18.15 24.45 18.15 23.4C18.15 20.4 20.4 17.7 24 17.7C27.15 17.7 28.95 19.65 28.95 22.35C28.95 25.95 27.45 28.8 25.2 28.8C23.85 28.8 22.95 27.75 23.25 26.55C23.3752 25.9239 23.5789 25.2716 23.7736 24.6477C24.0455 23.777 24.3 22.9617 24.3 22.35C24.3 21.3 23.7 20.55 22.65 20.55C21.45 20.55 20.4 21.9 20.4 23.7C20.4 24.9 20.85 25.65 20.85 25.65C20.85 25.65 19.65 31.2 19.35 32.25C19.2 33.1499 19.2 34.0499 19.2 34.9498C15 33.1498 12 28.95 12 24Z" fill="#479CFC"/>
</svg>
